HIERARCHY
ROOT hip
{
	OFFSET 0.000000 0.000000 0.000000 
	CHANNELS 6 Xposition Yposition Zposition Xrotation Zrotation Yrotation
	JOINT abdomen
	{
		OFFSET 0.000000 3.402643 0.000000 
		CHANNELS 3 Xrotation Zrotation Yrotation
		JOINT chest
		{
			OFFSET 0.000000 8.438565 -0.680529 
			CHANNELS 3 Xrotation Zrotation Yrotation
			JOINT neck
			{
				OFFSET 0.000000 10.207942 -0.272212 
				CHANNELS 3 Xrotation Zrotation Yrotation
				JOINT head
				{
					OFFSET 0.000000 3.130431 0.000000 
					CHANNELS 3 Xrotation Zrotation Yrotation
					End Site
					{
						OFFSET 0.000000 3.130435 0.000000 
					}
				}
			}
			JOINT lCollar
			{
				OFFSET 3.470700 6.669187 -0.816635 
				CHANNELS 3 Yrotation Zrotation Xrotation
				JOINT lShldr
				{
					OFFSET 3.198488 0.000000 0.000000 
					CHANNELS 3 Zrotation Yrotation Xrotation
					JOINT lForeArm
					{
						OFFSET 10.139888 0.000000 0.000000 
						CHANNELS 3 Yrotation Zrotation Xrotation
						JOINT lHand
						{
							OFFSET 8.370511 0.000000 0.000000 
							CHANNELS 3 Zrotation Yrotation Xrotation
							End Site
							{
								OFFSET 4.083176 0.000000 0.000000 
							}
						}
					}
				}
			}
			JOINT rCollar
			{
				OFFSET -3.470700 6.669187 -0.816635 
				CHANNELS 3 Yrotation Zrotation Xrotation
				JOINT rShldr
				{
					OFFSET -3.198488 0.000000 0.000000 
					CHANNELS 3 Zrotation Yrotation Xrotation
					JOINT rForeArm
					{
						OFFSET -10.139888 0.000000 0.000000 
						CHANNELS 3 Yrotation Zrotation Xrotation
						JOINT rHand
						{
							OFFSET -8.370511 0.000000 0.000000 
							CHANNELS 3 Zrotation Yrotation Xrotation
							End Site
							{
								OFFSET -4.083176 0.000000 0.000000 
							}
						}
					}
				}
			}
		}
	}
	JOINT lThigh
	{
		OFFSET 5.308129 -1.633274 1.361059 
		CHANNELS 3 Xrotation Zrotation Yrotation
		JOINT lShin
		{
			OFFSET -2.041588 -20.007561 0.000000 
			CHANNELS 3 Xrotation Zrotation Yrotation
			JOINT lFoot
			{
				OFFSET 0.000000 -19.190928 -1.224953 
				CHANNELS 3 Xrotation Yrotation Zrotation
				End Site
				{
					OFFSET 0.000000 -2.449906 4.627600 
				}
			}
		}
	}
	JOINT rThigh
	{
		OFFSET -5.308129 -1.633274 1.361059 
		CHANNELS 3 Xrotation Zrotation Yrotation
		JOINT rShin
		{
			OFFSET 2.041588 -20.007561 0.000000 
			CHANNELS 3 Xrotation Zrotation Yrotation
			JOINT rFoot
			{
				OFFSET 0.000000 -19.190928 -1.224953 
				CHANNELS 3 Xrotation Yrotation Zrotation
				End Site
				{
					OFFSET 0.000000 -2.449906 4.627600 
				}
			}
		}
	}
}
MOTION
Frames: 8
Frame Time: 0.016667
35.872093 44.329460 119.562263 7.392578 4.003906 -83.144531 0.000000 0.000000 0.000000 10.878907 -17.636721 -14.065459 -11.230469 -0.742188 -17.226688 -2.646484 0.166016 -34.316376 1.054688 -3.398427 2.002538 -21.054686 -7.089843 7.860125 -122.285164 0.556641 6.523438 -16.669922 -14.355468 -6.904296 -0.009766 10.625000 2.978516 27.197266 -20.937500 -7.236328 115.742188 1.347656 6.689453 -15.693358 19.365234 -33.746761 -15.641451 39.483814 4.576038 19.474455 -2.470637 -2.009954 16.729420 -2.223205 3.795671 -30.669130 -7.889031 -8.771235 54.880135 1.191386 4.730400 2.916828 4.936315 -15.786094 
35.439133 45.932503 118.423210 11.083985 2.412109 -80.204666 0.000000 0.000000 0.000000 10.781250 -15.908204 -14.980470 -9.306641 0.156250 -17.128906 1.044922 1.738281 -33.808300 0.351563 -3.945308 2.139346 -19.873045 -9.550781 12.820646 -118.408203 0.791016 6.640490 -20.400389 -10.087891 -0.929443 -1.455078 12.841798 3.113064 23.173830 -26.123049 -5.502346 115.566406 1.337891 6.689454 -18.632813 20.380859 -34.908707 -14.072664 41.787361 3.989506 15.207581 -2.685044 -1.260041 21.570612 -3.379656 6.578333 -27.139059 -3.848130 -10.169357 51.195049 1.537598 4.651142 11.139091 4.009109 -11.271273 
35.153595 47.492088 117.322983 14.941407 1.015625 -76.718575 0.000000 0.000000 0.000000 11.201171 -13.466797 -16.542971 -7.558594 1.240234 -17.011719 3.671875 3.671875 -33.534531 -0.175781 -4.667969 2.099609 -20.556639 -13.808594 18.659781 -112.763672 1.093750 6.542782 -22.324219 -5.576172 3.964844 -3.095703 14.863280 3.398438 20.693359 -30.214844 -2.421875 112.763672 1.142578 6.699219 -22.050781 20.644531 -35.094212 -15.789261 43.656139 3.975776 15.416652 -2.285147 -1.567227 22.123474 -3.738194 7.232738 -25.711336 -0.351316 -10.672524 48.901974 1.708997 4.439477 19.045332 2.934909 -5.104370 
35.051174 48.927536 116.273941 18.984375 -0.175781 -73.183624 0.000000 0.000000 0.000000 11.435548 -10.351563 -18.116991 -6.503906 2.294922 -17.060547 5.253907 5.439453 -33.524464 -0.351563 -5.380860 2.265625 -22.753904 -19.511719 24.244785 -104.980469 1.542969 6.523144 -22.236328 -2.939453 7.304188 -4.228516 16.738281 3.671875 20.136719 -32.685547 0.756447 107.490234 0.869141 6.679688 -25.517578 19.492189 -34.853512 -21.071644 45.433529 2.793356 19.475048 -2.519406 -1.832446 19.785309 -3.106216 5.744804 -26.918938 2.627033 -11.057420 49.075218 1.709052 4.789135 25.007721 1.960092 1.643093 
35.116356 50.172100 115.286964 23.378906 -0.976563 -70.039063 0.000000 0.000000 0.000000 11.855470 -6.542969 -19.669081 -6.337891 2.998047 -17.128904 5.419921 6.845703 -33.583984 -0.351563 -6.435547 2.431641 -25.947266 -25.595701 28.306330 -95.820313 2.011719 6.396484 -21.191406 -2.382813 9.335938 -4.628906 18.134766 3.701171 21.738281 -33.359375 2.988282 100.468750 0.449219 6.621094 -28.320313 16.982422 -34.528404 -28.775026 46.819881 0.861276 26.911242 -2.207995 -2.574915 16.514879 -2.117511 2.738155 -30.118536 4.901917 -10.761934 52.070313 1.509748 5.069902 27.821066 1.321901 6.506792 
35.302574 51.204063 114.365189 27.607422 -1.562500 -67.792969 0.000000 0.000000 0.000000 12.666016 -2.402344 -20.761721 -6.689453 3.515625 -17.225962 4.531250 7.714844 -33.574219 -0.175781 -7.128906 2.451172 -29.785158 -31.865236 30.722658 -86.738281 2.353516 6.210494 -19.931639 -3.212891 10.292421 -4.277344 18.837893 3.818359 24.384766 -31.894531 3.930387 92.216797 -0.029297 6.484375 -30.166016 13.652344 -34.665665 -36.234009 47.795815 -1.024866 34.471497 -1.788730 -3.602946 15.426665 -1.008520 -0.055066 -35.308064 6.298480 -11.009618 58.549084 0.962291 5.719936 26.827198 0.860963 10.080063 
35.563278 52.020329 113.508568 31.484375 -2.099609 -66.514030 0.000000 0.000000 0.000000 13.710938 1.533203 -21.249741 -7.402343 3.701171 -17.147804 2.753906 8.037110 -33.662109 0.351562 -7.636718 2.519531 -33.535160 -38.134766 31.972658 -78.486328 2.871094 5.985839 -18.300781 -4.560547 10.693359 -3.554688 19.570314 3.981104 26.816404 -28.681641 4.365235 83.486328 -0.517578 6.445401 -30.771484 10.430452 -35.352222 -42.075344 48.208492 -1.977465 40.466686 -1.096126 -4.083812 15.796443 -0.381789 -1.863282 -41.716774 6.473834 -11.228032 67.469566 -0.299662 5.976038 22.656408 0.386165 10.672940 
35.853470 52.636402 112.704727 34.833988 -2.314453 -65.430084 0.000000 0.000000 0.000000 14.824219 5.263672 -21.455078 -8.642578 3.535156 -17.080078 0.273438 7.822266 -33.632816 1.064453 -7.958984 2.628305 -37.041016 -44.052734 32.307663 -72.187500 3.203125 5.800236 -16.484373 -5.898438 11.073217 -3.007812 20.292971 4.186067 28.300781 -24.422295 5.006342 75.214844 -0.927734 6.171875 -30.742184 7.958984 -36.531849 -45.713375 48.537102 -2.129517 43.798771 -0.940066 -4.183517 17.524145 -0.690437 -2.623425 -48.211372 5.604958 -11.123857 78.143135 -1.550594 6.416352 17.266098 0.463297 9.134270 
